# xmcd
#
# Track frame offsets: 
#        150
#        21315
#        40370
#        62264
#        78209
#        95336
#        115250
#        137855
#        152439
#        172014
#        187399
#        213900
#        232220
#
# Disc length: 3329 seconds
#
# Revision: 0
# Processed by: cddbd v1.5.2PL0 Copyright (c) Steve Scherf et al.
# Submitted via: ExactAudioCopy v1.3
#
DISCID=b10cff0d
DTITLE=Awek - Let's Party Down [disk 1]
DYEAR=2019
DGENRE=Blues Rock
TTITLE0=Every Time
TTITLE1=Want You to Be My Girl
TTITLE2=Snake Boy
TTITLE3=Can't Stop Thinking
TTITLE4=Let's Party Down
TTITLE5=She's Messing Around
TTITLE6=Don't Want to Lose You
TTITLE7=Early Every Morning
TTITLE8=Come on in This House
TTITLE9=Margarita
TTITLE10=Feel so Cold
TTITLE11=Here I Am Again
TTITLE12=I've Been Waiting
EXTD=
EXTT0=
EXTT1=
EXTT2=
EXTT3=
EXTT4=
EXTT5=
EXTT6=
EXTT7=
EXTT8=
EXTT9=
EXTT10=
EXTT11=
EXTT12=
PLAYORDER=
